<svg width="153" height="115" viewBox="0 0 153 115" fill="none" xmlns="http://www.w3.org/2000/svg">
<path d="M80 0.0861206V0.586121H80.7227L79.8506 1.44257L23.2061 57.092L77.874 112.736L78.71 113.586H0.5V0.586121H79V0.0861206H80ZM99.207 112.586V113.586H99V112.586H99.207ZM98.9873 0.500183L98.9854 1.50018H98.6992L98.7012 0.500183H98.9873Z" fill="white" stroke="#0A2540"/>
<path d="M99.2067 113.086L99.7001 113.586M99.3965 0.586121L98.9861 1.00066" stroke="black"/>
<path d="M98.9873 0.500671L150.483 0.586609L151.702 0.588562L150.833 1.44305L94.2012 57.0925L148.857 112.736L149.692 113.587H98.998L98.8506 113.437L43.3447 57.1911L42.9971 56.8395L43.3447 56.488L98.6309 0.649109L98.7783 0.500671H98.9873Z" fill="#0A2540" stroke="#00D4A9"/>
</svg>
