<svg width="153" height="115" viewBox="0 0 153 115" fill="none" xmlns="http://www.w3.org/2000/svg">
<path d="M80 0.0861816V0.586182H80.7227L79.8506 1.44263L23.2061 57.092L77.874 112.736L78.71 113.586H0.5V0.586182H79V0.0861816H80ZM99.207 112.586V113.586H99V112.586H99.207ZM98.9873 0.500244L98.9854 1.50024H98.6992L98.7012 0.500244H98.9873Z" fill="white" stroke="#0A2540"/>
<path d="M99.2067 113.086L99.7001 113.586M99.3965 0.586182L98.9861 1.00072" stroke="black"/>
<path d="M98.9873 0.500732L150.483 0.58667L151.702 0.588623L150.833 1.44312L94.2012 57.0925L148.857 112.736L149.692 113.587H98.998L98.8506 113.437L43.3447 57.1912L42.9971 56.8396L43.3447 56.488L98.6309 0.64917L98.7783 0.500732H98.9873Z" fill="#00D4A9" stroke="#00D4A9"/>
</svg>
